<?xml version="1.0" standalone="no"?>
<!DOCTYPE svg PUBLIC "-//W3C//DTD SVG 20010904//EN"
 "http://www.w3.org/TR/2001/REC-SVG-20010904/DTD/svg10.dtd">
<svg version="1.0" xmlns="http://www.w3.org/2000/svg"
 width="148.000000pt" height="222.000000pt" viewBox="0 0 148.000000 222.000000"
 preserveAspectRatio="xMidYMid meet">
<metadata>
Created by potrace 1.16, written by Peter Selinger 2001-2019
</metadata>
<g transform="translate(0.000000,222.000000) scale(0.100000,-0.100000)"
fill="#000000" stroke="none">
<path d="M237 2058 c-19 -18 -27 -40 -35 -98 -7 -41 -32 -192 -57 -335 -54
-314 -58 -422 -21 -539 76 -240 251 -401 502 -461 l71 -17 6 -111 c4 -62 7
-183 7 -270 0 -131 3 -159 15 -163 8 -4 22 -1 30 6 13 10 15 55 15 275 l0 262
72 18 c223 54 397 216 478 445 33 91 31 236 -4 430 -43 236 -67 370 -82 460
-10 63 -19 89 -35 103 -20 16 -58 17 -480 17 l-458 0 -24 -22z m917 -56 c3 -5
12 -48 20 -98 8 -49 22 -127 30 -174 28 -157 66 -384 66 -392 0 -4 -247 -8
-550 -8 -483 0 -550 2 -550 15 0 8 18 122 41 253 22 130 45 266 50 302 5 36
12 75 15 88 l4 22 435 0 c238 0 436 -4 439 -8z m126 -781 c0 -85 -69 -252
-143 -343 -40 -50 -137 -124 -197 -150 -152 -68 -288 -63 -449 15 -85 41 -214
167 -258 252 -31 60 -73 198 -73 242 l0 23 560 0 560 0 0 -39z"/>
<path d="M1410 530 c-19 -10 -71 -52 -116 -92 -44 -40 -145 -131 -225 -202
-79 -71 -170 -153 -202 -183 l-58 -53 50 0 c51 0 52 1 169 108 291 264 404
362 427 368 20 5 25 12 25 40 0 40 -16 43 -70 14z"/>
</g>
</svg>
